<svg xmlns="http://www.w3.org/2000/svg" width="128" height="128" viewBox="0 0 128 128">
  <g transform="translate(64, 64) scale(0.067, -0.067) translate(-950, -925)">
    <path d="M1088 1671 c-110 -44 -212 -129 -305 -257 -21 -28 -21 -29 -42 -10
-12 11 -33 57 -47 103 -33 108 -65 143 -133 143 -61 0 -134 -30 -236 -96 -90
-58 -143 -86 -196 -103 -20 -6 -44 -20 -53 -30 -16 -18 -15 -20 11 -41 23 -18
37 -21 81 -18 49 4 51 4 36 -13 -8 -9 -14 -28 -12 -41 3 -21 7 -23 66 -22 54
1 62 -2 62 -17 0 -35 49 -47 103 -24 13 5 17 2 17 -12 0 -29 20 -43 62 -43 34
0 38 -3 38 -26 0 -17 6 -28 20 -31 18 -5 18 -7 5 -32 -40 -72 -160 -175 -249
-211 l-54 -23 -11 -62 c-6 -34 -11 -70 -11 -80 0 -20 80 -121 283 -355 131
-152 134 -155 171 -153 55 4 208 88 282 156 34 32 86 87 114 122 45 56 54 63
70 53 13 -8 25 -9 41 -2 20 9 26 7 44 -20 17 -25 27 -30 51 -28 28 3 32 -1 43
-37 13 -44 49 -64 75 -42 11 9 15 5 19 -19 15 -72 72 -106 98 -58 11 21 12 21
24 -9 14 -32 59 -73 81 -73 28 0 34 36 18 116 -10 49 -16 141 -17 244 -2 180
-8 200 -64 237 -28 18 -143 24 -196 10 l-28 -8 17 26 c22 34 123 105 199 141
33 16 63 34 67 39 4 6 8 42 8 81 l0 71 -92 90 c-51 49 -160 154 -241 234 -82
79 -154 145 -160 146 -7 1 -33 -6 -59 -16z" fill="#4A90E2" stroke="none"/>
  </g>
</svg>
